<?xml version="1.0" encoding="iso-8859-1"?>
<!-- Generator: Adobe Illustrator 19.0.0, SVG Export Plug-In . SVG Version: 6.00 Build 0)  -->
<svg version="1.1" id="Layer_1" xmlns="http://www.w3.org/2000/svg" xmlns:xlink="http://www.w3.org/1999/xlink" x="0px" y="0px"
	 viewBox="0 0 469.333 469.333" style="enable-background:new 0 0 469.333 469.333;" xml:space="preserve">
<g>
	<g>
		<path d="M465.069,173.151c0,0-194.402-155.411-201.725-161.904C254.869,3.753,244.768,0.004,234.671,0
			C224.565-0.004,214.462,3.746,206,11.248C198.677,17.74,4.264,173.151,4.264,173.151c-2.487,2-4.264,4.771-4.264,8.043v245.452
			c0,23.543,19.135,42.687,42.667,42.687h384c23.531,0,42.667-19.145,42.667-42.687V181.194
			C469.333,177.922,467.556,175.151,465.069,173.151z M249.198,335.154c-2.573,2.282-7.938,6.118-14.865,6.118
			c-5.063,0-9.948-2.053-14.531-6.118C178.437,298.507,63.305,208.606,27.927,181.091C68.854,148.503,211.771,34.646,220.146,27.224
			c5.667-5.002,18.75-9.119,29.052,0.01c8.374,7.411,151.262,121.251,192.199,153.849
			C405.921,208.629,290.314,298.748,249.198,335.154z"/>
	</g>
</g>
<g>
</g>
<g>
</g>
<g>
</g>
<g>
</g>
<g>
</g>
<g>
</g>
<g>
</g>
<g>
</g>
<g>
</g>
<g>
</g>
<g>
</g>
<g>
</g>
<g>
</g>
<g>
</g>
<g>
</g>
</svg>
